<svg xmlns="http://www.w3.org/2000/svg" viewBox="0 0 434.669 434.669" width="435" height="435"><g><path d="M178.471 107.469c-.036.001-.15.018-.24.02-.878.019-3.998.094-5.7.48-1.903.431-3.806 1.018-5.48 2.02-2.505 1.5-4.617 3.641-6.56 5.82-1.622 1.818-2.862 3.944-4.2 5.98-.538.819-1.232 1.584-1.52 2.52-.04.129-.093.245-.12.38-31.257.088-62.513.31-93.76 1.02-18.762.627-37.167 10.052-47.44 25.98-4.402 5.134-7.214 11.198-8.48 17.76-7.318 19.753-4.191 41.284-4.86 61.9-.621 16.44 2.831 32.975 10.28 47.6 8.66 13.65 21.606 25.827 38.16 28.3 23.191 4.821 47.076 2.084 70.58 2.88 11.854-.026 23.706-.018 35.56-.02.02.085.055.158.08.24.288.936.982 1.701 1.52 2.52 1.338 2.036 2.578 4.162 4.2 5.98 1.943 2.179 4.055 4.32 6.56 5.82 1.674 1.003 3.577 1.589 5.48 2.02 1.702.385 4.822.461 5.7.48.395.081.82.011 1.1-.2s.368-.419.44-.9-.001-.689-.32-1.9-1.082-3.32-1.9-5.24-2.176-4.557-3.08-6.22a52.51 52.51 0 0 0-1.5-2.6c15.421.007 30.838.007 46.26.02.054.071.111.148.18.22.356.375.873.872 1.86 1.22.987.348 1.037.25 4.04.4 3.003.15 10.612.097 12.84-.04s2.625-.172 3.72-.6c.884-.346 1.544-.512 1.68-1.18 23.496.006 47.005-.021 70.5-.12.864.293 1.059.217 3.92.36 3.003.15 10.632.097 12.86-.04 1.837-.113 2.436-.167 3.2-.42 19.412-.121 38.829-.305 58.24-.58 13.574.032 27.064-8.429 31.62-21.48 11.638-28.71 11.428-60.541 10.24-91.04-1.52-19.914-4.089-40.865-14.88-58.06-9.668-13.695-28.301-14.1-43.48-14.04-14.294-.15-28.584-.208-42.88-.24a29.263 29.263 0 0 0-2.06-.18c-2.228-.137-9.857-.19-12.86-.04-1.971.098-2.633.098-3.16.18-18.306-.005-36.613.039-54.92.04-5.439.029-10.881.042-16.32.06-.114-.706-.796-.867-1.7-1.22-1.095-.428-1.492-.463-3.72-.6s-9.837-.19-12.84-.04-3.053.052-4.04.4-1.504.845-1.86 1.22a2.375 2.375 0 0 0-.24.28l-46.26.06c.471-.758.955-1.587 1.56-2.7.904-1.664 2.262-4.299 3.08-6.22.818-1.92 1.581-4.029 1.9-5.24s.392-1.419.32-1.9c-.072-.481-.16-.689-.44-.9-.191-.144-.452-.21-.72-.22a1.634 1.634 0 0 0-.14 0zm52.58 17.08a35.932 35.932 0 0 1 1.84.02c-.887.002-1.773-.002-2.66 0 .282-.011.572-.017.82-.02zm161.62 7.32c3.984-.1 8.475.497 10.9 1.74 5.937 3.043 9.497 7.731 10.88 14.34.451 2.157 1.527 5.292 2.38 6.98 2.538 5.022 4.874 12.282 4.66 14.46l-.2 2.02-1.98-1.86c-1.088-1.02-2.95-3.953-4.12-6.52-6.772-14.861-15.816-23.517-29.6-28.36-1.199-.421-1.19-.468-.06-1.3 1.258-.926 4.041-1.422 7.14-1.5zm-214.34 1.26c1.289-.008 2.762-.003 4.4 0 10.918.021 29.102.262 48.16.66l13.6.28 5.3 8.32c2.911 4.567 5.377 8.74 5.48 9.28.185.969.136.967-4.1.9-2.361-.037-8.515-.213-13.66-.4-14.533-.528-36.943-2.857-51.1-5.3l-5.66-.96-1.82-2.84c-1.002-1.555-2.866-4.275-4.14-6.06s-2.387-3.433-2.48-3.66c-.047-.114 2.154-.196 6.02-.22zm-127.58.46c1.039 0 2.219-.006 3.56 0 14.446.06 17.025 1.169 11.5 4.9-3.192 2.156-23.743 14.638-32.06 19.48-7.072 4.117-9.857 6.488-13.02 11.08-1.273 1.848-3.207 3.772-4.32 4.3-2.067.981-5.292 1.268-6.02.54-.226-.226-.42-2.035-.42-4.02 0-3.856 1.171-6.737 5.4-13.4 3.48-5.483 10.249-13.165 14.26-16.18 2.052-1.542 6.01-3.7 8.8-4.78 4.407-1.706 5.044-1.92 12.32-1.92zm217.5.82c1.649-.004 4.244.059 8.26.16 33.707.848 55.631 1.593 55.9 1.88.451.48 1.7 8.213 1.7 10.54 0 3.626.283 3.523-12.22 4.18-8.366.44-40.073 1.428-47.62 1.48-.734.005-1.541-1.452-4.66-8.4-2.074-4.619-3.916-8.752-4.08-9.18-.177-.463-.028-.654 2.72-.66zm84.34 4.84c.728-.024 1.629.029 2.78.12 4.51.359 15.212 1.876 15.8 2.24 1.263.781-5.239 3.088-13.2 4.7-5.925 1.2-6.614 1.27-8.08.68-1.362-.548-1.632-2.195-.78-4.76.724-2.18 1.297-2.909 3.48-2.98zm-238.72 3.74c1.925 0 55.013 11.673 64.22 14.12 6.208 1.65 17.614 5.504 25.34 8.56 17.578 6.952 26.57 9.32 35.44 9.32 6.752 0 7.142.179 12.68 6.1l5.7 6.1v60.5l-5.56 5.94-5.54 5.92-10.76.64c-8.487.496-13.218 1.589-22.44 5.18-22.98 8.949-37.944 13.313-65.84 19.26-15.566 3.318-29.535 6.317-31.04 6.66-2.204.502-3.188-.271-5.08-4-2.909-5.735-9.306-25.696-11.14-34.78-4.045-20.033-3.727-55.656.64-73.22 4.072-16.38 11.416-36.3 13.38-36.3zm285.2 6.3c3.395-.166 4.423 2.766 8.12 9.7 10.055 18.859 13.099 35.101 12.16 65-.737 23.458-2.732 32.473-10.86 49-7.083 14.402-7.268 14.5-17.72 9.52-4.738-2.257-11.808-5.301-15.7-6.76s-7.08-2.875-7.08-3.14 1.93-4.293 4.28-8.96c7.376-14.648 9.794-26.292 9.72-46.82-.075-20.549-2.245-30.756-9.68-45.52-2.46-4.884-4.293-9.025-4.08-9.2s7.532-3.43 16.26-7.24c7.88-3.44 11.94-5.451 14.58-5.58zm-387.22 110.9c.488-.043 1.092.041 1.84.22 3.659.874 4.193 1.296 7.28 5.54 3.662 5.035 5.749 6.701 14.84 11.96 13.472 7.793 31.589 19.145 32.24 20.2 1.395 2.262-.265 2.64-12.72 2.78-10.284.115-12.234-.022-15.04-1.04-9.38-3.403-16.845-9.753-23.88-20.32-5.178-7.777-6.403-10.62-6.42-14.86-.012-3.107.395-4.352 1.86-4.48zm409.44 3.22l.18 1.84c.217 2.132-2.37 10.221-4.56 14.22-.818 1.493-1.902 4.672-2.4 7.06-2.12 10.167-9.973 16.474-20.26 16.3-2.053-.035-4.573-.254-5.6-.5s-2.402-.752-3.06-1.12c-1.119-.626-1.075-.708.64-1.4 7.987-3.225 12.381-5.899 16.6-10.06 5.036-4.966 8.203-9.575 12.3-17.94 1.556-3.178 3.565-6.377 4.48-7.1l1.68-1.3zm-147.92 18.66l8.72.1c10.585.12 31.399.849 42.66 1.48 6.71.376 8.359.591 8.8 1.16.75.967.671 4.788-.22 9.44l-.76 3.9-1.96.3c-1.899.287-24.574.961-51.92 1.54-9.474.201-13.399.148-13.28-.18.093-.256 1.92-4.352 4.06-9.1l3.9-8.64zm-25.76.18c4.695-.008 7.74.179 7.74.62 0 .57-9.584 16.057-10.62 17.16-.511.543-11.651.836-60.18 1.56l-12.7.2 1.78-2.46c.985-1.351 2.976-4.281 4.42-6.5 1.602-2.461 2.989-4.117 3.54-4.24 4.928-1.102 23.755-3.611 35.48-4.74 10.337-.995 22.715-1.587 30.54-1.6zm104.58 5.28c1.809.025 4.377.466 7.88 1.26 8.774 1.988 13.206 3.948 10.28 4.56-2.82.59-11.111 1.606-15.22 1.86l-4.42.26-.88-1.44c-.482-.793-1.002-2.208-1.16-3.14-.394-2.334.505-3.402 3.52-3.36z" fill="#222"/></g></svg>