<svg xmlns="http://www.w3.org/2000/svg" viewBox="0 0 331 331" width="331" height="331"><g><path d="M103.725 136.549c-20.491 0-38.634 10.201-49.653 25.78h99.306c-11.02-15.579-29.162-25.78-49.653-25.78zM103.725 258.935c20.065 0 37.884-9.776 48.962-24.81H54.762c11.079 15.034 28.898 24.81 48.963 24.81z"/><path d="M298.148 84.023H131.044l130.87-41.051a13.584 13.584 0 0 0 8.638 3.09c7.531 0 13.658-6.128 13.658-13.659 0-7.532-6.127-13.66-13.658-13.66-6.232 0-11.492 4.201-13.125 9.917l-176.5 55.363H32.852C14.737 84.023 0 98.761 0 116.876v162.528c0 18.115 14.737 32.853 32.852 32.853h265.297c18.114 0 32.852-14.737 32.852-32.853V116.876c-.001-18.115-14.738-32.853-32.853-32.853zM103.725 269.935c-39.588 0-71.795-32.207-71.795-71.796 0-39.588 32.207-71.795 71.795-71.795s71.795 32.207 71.795 71.795c-.001 39.59-32.208 71.796-71.795 71.796zm112.771-9.428c-10.421 0-18.867-8.448-18.867-18.869s8.446-18.867 18.867-18.867c10.42 0 18.87 8.446 18.87 18.867s-8.45 18.869-18.87 18.869zm54.057 0c-10.42 0-18.868-8.448-18.868-18.869s8.448-18.867 18.868-18.867c10.422 0 18.868 8.446 18.868 18.867s-8.446 18.869-18.868 18.869zm21.927-103.672h-28.668v-11.73a5.5 5.5 0 0 0-11 0v11.73h-58.244v-24.99h97.912v24.99z"/></g></svg>