<svg xmlns="http://www.w3.org/2000/svg" viewBox="0 0 512 512" width="512" height="512"><g><g><g><path data-original="#000000" class="active-path" d="M360.55 131.774v107.53h-87.854v-107.53h-33.392v107.53H151.45v-107.53h-33.392v248.453h33.392V272.696h87.854v107.531h33.392V272.696h121.246V131.774z"/></g></g><g><g><path d="M437.02 74.98C388.667 26.628 324.38 0 256 0S123.333 26.628 74.98 74.98C26.628 123.333 0 187.619 0 256s26.628 132.667 74.98 181.02C123.333 485.372 187.62 512 256 512s132.667-26.628 181.02-74.98C485.372 388.667 512 324.381 512 256s-26.628-132.667-74.98-181.02zM256 478.609c-122.746 0-222.609-99.862-222.609-222.609S133.254 33.391 256 33.391 478.609 133.254 478.609 256 378.746 478.609 256 478.609z" data-original="#000000" class="active-path"/></g></g><g><g><path d="M393.775 351.234c5.845-4.11 9.315-11.05 9.315-18.539 0-11.05-9.133-22.466-21.826-22.466h-29.771v64.838h17.808V355.16h6.666l12.329 19.908h20.09l-14.611-23.834zm-13.241-11.598h-11.233v-13.881h10.776c2.192 0 4.932 2.465 4.932 6.94-.001 4.384-2.283 6.941-4.475 6.941z" data-original="#000000" class="active-path"/></g></g></g></svg>